General
Complete name                    : the doors sound stage performances(dvdrip)H.264-Frontman76.m4v
Format                           : MPEG-4
Format profile                   : Base Media / Version 2
Codec ID                         : mp42
File size                        : 2.15 GiB
Duration                         : 2h 0mn
Overall bit rate                 : 2 549 Kbps
Encoded date                     : UTC 2010-05-09 08:13:36
Tagged date                      : UTC 2010-05-09 13:45:45
Writing application              : HandBrake 0.9.4 2009112300

Video
ID                               : 1
Format                           : AVC
Format/Info                      : Advanced Video Codec
Format profile                   : High@L3.0
Format settings, CABAC           : Yes
Format settings, ReFrames        : 3 frames
Codec ID                         : avc1
Codec ID/Info                    : Advanced Video Coding
Duration                         : 2h 0mn
Bit rate mode                    : Variable
Bit rate                         : 2 000 Kbps
Width                            : 720 pixels
Height                           : 480 pixels
Display aspect ratio             : 4:3
Original display aspect ratio    : 4:3
Frame rate mode                  : Variable
Frame rate                       : 29.730 fps
Original frame rate              : 29.729 fps
Minimum frame rate               : 17.123 fps
Maximum frame rate               : 29.970 fps
Standard                         : NTSC
Resolution                       : 8 bits
Colorimetry                      : 4:2:0
Scan type                        : Progressive
Bits/(Pixel*Frame)               : 0.195
Stream size                      : 1.69 GiB (78%)
Writing library                  : x264 core 79
Encoded date                     : UTC 2010-05-09 08:13:36


Audio #1
ID                               : 2
Format                           : AAC
Format/Info                      : Advanced Audio Codec
Format version                   : Version 4
Format profile                   : LC
Format settings, SBR             : No
Codec ID                         : 40
Duration                         : 2h 0mn
Bit rate mode                    : Variable
Bit rate                         : 160 Kbps
Maximum bit rate                 : 220 Kbps
Channel(s)                       : 2 channels
Channel positions                : Front: L R
Sampling rate                    : 48.0 KHz
Stream size                      : 138 MiB (6%)
Encoded date                     : UTC 2010-05-09 08:13:36
Tagged date                      : UTC 2010-05-09 13:45:45

Audio #2
ID                               : 3
Format                           : AC-3
Format/Info                      : Audio Coding 3
Format_Settings_ModeExtension    : CM (complete main)
Codec ID                         : ac-3
Duration                         : 2h 0mn
Bit rate mode                    : Constant
Bit rate                         : 384 Kbps
Channel(s)                       : 6 channels
Channel positions                : Front: L C R, Side: L R, LFE
Sampling rate                    : 48.0 KHz
Resolution                       : 16 bits
Stream size                      : 331 MiB (15%)
Encoded date                     : UTC 2010-05-09 08:13:36
Tagged date                      : UTC 2010-05-09 13:45:45

Text
ID                               : 4
Format                           : Apple text
Codec ID                         : text
Duration                         : 2h 0mn
Bit rate mode                    : Constant
Bit rate                         : 1 bps
Stream size                      : 504 Bytes (0%)
Encoded date                     : UTC 2010-05-09 08:13:36
Tagged date                      : UTC 2010-05-09 13:45:45
Imdb                             :www.imdb.com/title/tt0888493
Imdb Rating                      : 7.5/10

Three different TV appearances ('67-'70) including old interviews, performances and the commentaries about specific songs by band members.